<svg xmlns="http://www.w3.org/2000/svg" width="56" height="56" viewBox="0 0 56 56"><g fill="#FFF" fill-rule="evenodd"><path d="M36.772 32.827h9.544V23.06h-9.544v9.766zm4.772-19.672c-7.984 0-14.456 6.622-14.456 14.79s6.472 14.79 14.456 14.79c7.983 0 14.456-6.622 14.456-14.79s-6.473-14.79-14.456-14.79z"/><path d="M41.545 2.626l-.003-.002.001-.02c0-1.427-1.13-2.585-2.526-2.585l-.029.002h-11.95L27.036 0C12.075.181 0 12.649 0 28c0 15.464 12.254 28 27.368 28v-.034h11.636l.006-.006h.001c1.387 0 2.512-1.143 2.525-2.558l.009-.01V42.606H27.037c-7.74-.195-13.957-6.669-13.957-14.636 0-7.992 6.26-14.484 14.036-14.638V13.3h14.429V2.626z"/></g></svg>